<svg width="22" height="22" viewBox="0 0 22 22" fill="none" xmlns="http://www.w3.org/2000/svg">
<g id="google icon">
<g id="Group">
<path id="Vector" fill-rule="evenodd" clip-rule="evenodd" d="M1.40723 6.06775C1.85595 5.08074 2.48999 4.21962 3.23349 3.44035C4.91595 1.67687 6.95305 0.547545 9.36444 0.162354C12.7395 -0.376789 15.7602 0.419042 18.3706 2.66676C18.5355 2.80879 18.5763 2.8918 18.3969 3.06742C17.4756 3.96962 16.5688 4.88667 15.6566 5.79828C15.563 5.89181 15.4999 6.00595 15.3337 5.85361C13.0355 3.74793 9.28421 3.77188 6.84215 6.043C6.00376 6.82273 5.40755 7.7571 5.01724 8.82824C4.9603 8.79096 4.90043 8.75767 4.84671 8.71635C3.69981 7.83402 2.55358 6.95077 1.40723 6.06775Z" fill="#D7282A"></path>
<path id="Vector_2" fill-rule="evenodd" clip-rule="evenodd" d="M4.99015 13.1289C5.31957 13.9656 5.72897 14.7568 6.33742 15.4286C7.88451 17.1372 9.8022 17.8742 12.0998 17.6358C13.1674 17.5249 14.1401 17.1634 15.0489 16.6077C15.1361 16.6857 15.2191 16.769 15.311 16.8409C16.3747 17.6713 17.4397 18.5 18.5043 19.3291C17.3303 20.444 15.9442 21.1863 14.385 21.5805C10.7086 22.5097 7.31981 21.9224 4.31059 19.5477C3.06652 18.5659 2.08797 17.3532 1.39819 15.9177C2.59555 14.9881 3.79285 14.0585 4.99015 13.1289Z" fill="#45AC43"></path>
<path id="Vector_3" fill-rule="evenodd" clip-rule="evenodd" d="M18.5042 19.329C17.4396 18.4999 16.3746 17.6712 15.3109 16.8408C15.219 16.7689 15.136 16.6856 15.0488 16.6077C15.7696 16.0575 16.3711 15.4069 16.7661 14.5802C16.9236 14.2507 17.0343 13.9057 17.139 13.5569C17.2111 13.3164 17.1888 13.2228 16.8913 13.2254C15.1194 13.2404 13.3474 13.2329 11.5754 13.2328C11.2 13.2328 11.1997 13.2325 11.1997 12.8444C11.1996 11.6434 11.2054 10.4423 11.1947 9.24136C11.1926 9.00974 11.2332 8.92076 11.494 8.92151C14.7622 8.93103 18.0306 8.92896 21.299 8.92451C21.4754 8.92429 21.5864 8.93738 21.617 9.15198C22.0236 12.0104 21.6977 14.7417 20.2015 17.2644C19.7435 18.0368 19.1931 18.7421 18.5042 19.329Z" fill="#5D7FBE"></path>
<path id="Vector_4" fill-rule="evenodd" clip-rule="evenodd" d="M4.99014 13.1289C3.79285 14.0585 2.59555 14.9881 1.39819 15.9177C0.81343 14.8306 0.476159 13.6627 0.318803 12.4464C0.0461616 10.3388 0.345782 8.31111 1.2398 6.37739C1.2889 6.27116 1.3511 6.17098 1.40722 6.06787C2.55357 6.95078 3.6998 7.83403 4.8467 8.71636C4.90042 8.75767 4.96029 8.79097 5.01723 8.82825C4.53692 10.2589 4.56087 11.6926 4.99014 13.1289Z" fill="#F4C300"></path>
</g>
</g>
</svg>