<svg width="20" height="20" viewBox="0 0 20 20" fill="none" xmlns="http://www.w3.org/2000/svg">
<path d="M4.86662 18.5786H15.1335C15.8053 18.1738 16.434 17.7 16.9939 17.1488H3.00619C3.56604 17.7 4.1948 18.1738 4.86662 18.5786Z" fill="#E30613"></path>
<path d="M3.00556 17.1484H16.9933C17.4411 16.7091 17.846 16.2354 18.1991 15.7186H1.79972C2.16147 16.2354 2.55768 16.7091 3.00556 17.1484Z" fill="#EEEEEE"></path>
<path d="M4.86667 18.5781C6.36535 19.4825 8.12243 20.0079 10.0001 20.0079C11.8777 20.0079 13.6262 19.4825 15.1335 18.5781H4.86667Z" fill="#EEEEEE"></path>
<path d="M1.8003 15.7191H18.1997C18.5097 15.2712 18.7854 14.7889 19.0265 14.2893H0.973442C1.21461 14.7889 1.48162 15.2712 1.8003 15.7191Z" fill="#E30613"></path>
<path d="M0.973465 14.2889H19.0266C19.2419 13.8324 19.4314 13.3587 19.5864 12.8591H0.422226C0.568649 13.3501 0.758138 13.8324 0.982079 14.2889H0.973465Z" fill="#EEEEEE"></path>
<path d="M0.111626 11.4298C0.180531 11.9208 0.283888 12.3945 0.421698 12.8596H19.5859C19.7237 12.3945 19.8184 11.9208 19.896 11.4298H0.111626Z" fill="#E30613"></path>
<path d="M9.96568 11.4294H19.888C19.9569 10.9643 20 10.4906 20 9.99963H9.96568V11.4294Z" fill="#EEEEEE"></path>
<path d="M9.96568 9.99997H20C20 9.51763 19.9569 9.0353 19.888 8.57019H9.96568V9.99997Z" fill="#E30613"></path>
<path d="M9.96535 8.56991H19.8877C19.8188 8.07897 19.7154 7.60525 19.5776 7.14014H9.95673V8.56991H9.96535Z" fill="#EEEEEE"></path>
<path d="M9.96568 7.14047H19.5865C19.4401 6.64952 19.2506 6.16719 19.0267 5.71069H9.96568V7.14047Z" fill="#E30613"></path>
<path d="M9.96568 5.71939H19.0267C18.7855 5.21983 18.5185 4.73749 18.1998 4.28961H9.96568V5.71939Z" fill="#EEEEEE"></path>
<path d="M9.96568 4.28927H18.1998C17.8381 3.77249 17.4419 3.29877 16.994 2.8595H9.96568V4.28927Z" fill="#E30613"></path>
<path d="M9.96568 2.85989H16.994C16.4341 2.30865 15.8054 1.83493 15.1336 1.43011H9.96568V2.85989Z" fill="#EEEEEE"></path>
<path d="M9.96568 0.0689049H11.1543C10.7753 0.0258394 10.3877 0 10.0001 0C9.96568 0 9.96568 0.0689049 9.96568 0.0689049Z" fill="#E30613"></path>
<path d="M9.96568 1.43003H15.1336C13.9449 0.715137 12.6013 0.241415 11.1543 0.0691528H9.96568V1.43003Z" fill="#E30613"></path>
<path d="M9.96538 9.99963H0C0 10.482 0.0430656 10.9643 0.111971 11.4294H9.96538V9.99963Z" fill="#000066"></path>
<path d="M0 9.99997H9.96538V8.57019H0.111971C0.0430656 9.0353 0 9.50902 0 9.99997Z" fill="#000066"></path>
<path d="M0.111626 8.56991H9.96503V7.14014H0.421698C0.283888 7.60525 0.189144 8.07897 0.111626 8.56991Z" fill="#000066"></path>
<path d="M0.422431 7.14047H9.96577V5.71069H0.973671C0.758343 6.16719 0.568854 6.64091 0.413818 7.14047H0.422431Z" fill="#000066"></path>
<path d="M0.973442 5.71939H9.96554V4.28961H1.8003C1.49023 4.73749 1.21461 5.21983 0.973442 5.71939Z" fill="#000066"></path>
<path d="M1.79972 4.28927H9.96496V2.8595H3.00556C2.55768 3.29877 2.15286 3.77249 1.79972 4.28927Z" fill="#000066"></path>
<path d="M3.00619 2.85989H9.96559V1.43011H4.86662C4.1948 1.83493 3.56604 2.30865 3.00619 2.85989Z" fill="#000066"></path>
<path d="M9.96478 0C9.5858 0 9.21544 0.0258394 8.84508 0.0689049H9.96478V0Z" fill="#000066"></path>
<path d="M9.96563 1.43003V0.0691528H8.84593C7.39893 0.232802 6.05528 0.715137 4.86667 1.43003H9.96563Z" fill="#000066"></path>
<path d="M5.31375 9.29318C3.93477 9.29318 2.81749 8.1759 2.81749 6.79692C2.81749 5.41794 3.93477 4.30067 5.31375 4.30067C5.71637 4.30067 6.09886 4.40132 6.44109 4.57244C5.91768 4.11949 5.24329 3.84772 4.49844 3.84772C2.86782 3.84772 1.53917 5.1663 1.53917 6.80699C1.53917 8.44767 2.85776 9.76626 4.49844 9.76626C5.24329 9.76626 5.91768 9.49449 6.44109 9.04154C6.09886 9.21265 5.71637 9.31331 5.31375 9.31331V9.29318Z" fill="#FFCC00"></path>
<path d="M7.63901 4.72339L7.84032 5.92119L8.53485 4.9247L8.19262 6.0923L9.2495 5.49844L8.43419 6.40433L9.65212 6.32381L8.52478 6.77676L9.65212 7.23978L8.43419 7.15925L9.2495 8.06515L8.19262 7.47128L8.53485 8.63889L7.84032 7.6424L7.63901 8.8402L7.44777 7.6424L6.75325 8.63889L7.09547 7.47128L6.03859 8.06515L6.8539 7.15925L5.63597 7.23978L6.76331 6.77676L5.63597 6.32381L6.8539 6.40433L6.03859 5.49844L7.09547 6.0923L6.75325 4.9247L7.44777 5.92119L7.63901 4.72339Z" fill="#FFCC00"></path>
</svg>