<svg width="100" height="50" viewBox="0 0 100 50" fill="none" xmlns="http://www.w3.org/2000/svg">
<path d="M22.4965 36.4191C22.1655 36.0644 21.8581 35.686 21.6216 35.3077C21.3852 34.9294 21.2433 34.5511 21.196 34.1727C21.1251 33.7944 21.1724 33.4161 21.2906 33.0851C21.4088 32.7304 21.5507 32.423 21.7399 32.1392C22.0236 31.69 22.3783 31.288 22.7093 30.957C23.0404 30.6259 23.3714 30.3658 23.6551 30.1294C23.797 30.0348 23.9152 29.9166 24.0335 29.8456L27.5803 41.1481C27.5566 41.1481 23.1586 37.1284 22.4965 36.4191ZM19.5645 25.3294C20.3448 22.9175 21.2433 19.8909 21.4088 19.2525C21.5271 20.0801 22.0473 22.5156 22.4729 24.4308C21.5271 24.62 20.534 24.9274 19.5645 25.3294ZM26.067 28.7816C27.7222 27.7412 28.668 27.0082 30.0867 26.1806C30.2522 26.086 30.2286 25.9914 30.0394 26.0624C27.5566 27.0791 25.8778 28.0959 25.8778 28.0959C25.8778 28.0959 25.3813 26.819 24.8138 24.7619C26.1143 24.62 26.8473 24.7146 26.6581 24.6437C26.0433 24.4072 25.3813 24.289 24.6955 24.2417C24.1517 22.2082 23.6079 19.5126 23.3714 16.5333C23.2532 15.2091 23.3241 13.2702 23.5369 12.3481C23.4423 12.3481 23.4423 12.4426 23.2059 12.2771C22.3546 11.686 21.5507 10.3855 20.8177 11.4022C21.2197 12.821 20.6758 15.0673 20.4157 16.5096C20.0138 18.7087 19.0206 22.1372 17.6256 26.2042C16.5142 26.7954 15.4738 27.4575 14.599 28.1195C14.599 28.1195 15.1665 26.5826 11.6196 23.3432C8.07284 20.1037 8.49845 18.283 8.73491 17.55C8.99501 16.817 11.6669 13.5303 12.2344 14.8308C12.2344 14.8308 12.0216 15.4692 11.2177 16.2259C10.4137 16.9589 10.059 18.354 11.3832 17.4318C12.6837 16.5096 14.7645 14.7362 14.7645 14.7362C16.1832 13.1993 15.7576 11.0476 14.7172 11.0003C13.7004 10.9766 9.5152 12.5372 6.55953 16.4623C3.60386 20.3875 6.91421 23.154 8.5221 24.6673C10.13 26.1806 12.8492 28.285 11.4068 29.2072C10.4374 29.8456 11.2177 30.3658 11.2886 30.4604C11.3595 30.555 10.2246 32.6594 8.42752 32.4703C7.62357 32.3757 9.01865 31.5481 9.39698 31.288C9.7753 31.0279 11.4305 29.8456 10.059 29.8929C9.60979 29.9402 4.05312 32.4703 5.14081 34.3146C6.2285 36.1826 10.13 34.6457 12.9674 31.4299C14.8118 29.3254 16.0886 28.5215 17.0581 27.9304C16.6798 28.9471 16.1832 29.9639 15.6394 30.8624C16.9399 31.4299 18.0748 29.3491 18.5241 28.3796C18.6423 28.1195 18.8788 27.4575 19.1625 26.6062C20.4157 25.8969 21.6216 25.4476 22.662 25.1638C22.8512 25.9441 22.9931 26.5589 23.064 26.819C23.2059 27.2919 23.3714 27.8831 23.6079 28.5688C23.6551 28.7107 23.7024 28.8525 23.7497 29.018C23.5606 29.1363 23.3714 29.2545 23.1349 29.42C22.8039 29.6565 22.4492 29.9166 22.0473 30.2476C21.6689 30.5786 21.2433 30.9806 20.8413 31.5245C20.6049 31.8318 20.3684 32.2575 20.1793 32.7067C20.0138 33.1796 19.8955 33.7471 19.9665 34.3146C20.0138 34.9057 20.2266 35.4732 20.4867 35.9698C20.7468 36.4663 21.1014 36.9393 21.4561 37.3649C22.0945 38.1215 25.4522 41.2427 26.3034 41.9284C26.3034 41.9284 27.5803 43.56 28.8571 42.9688C29.7557 42.5669 30.5596 41.5265 29.9921 40.0368C28.5497 36.3008 26.067 28.7816 26.067 28.7816Z" fill="#EC2227"/>
<path d="M29.0935 23.9343C28.6206 23.8397 28.2422 24.0052 28.2186 24.3126C28.1949 24.62 28.5733 24.951 29.0698 25.0456C29.5427 25.1402 30.6304 24.9747 30.6541 24.6673C30.6541 24.3363 29.5664 24.0289 29.0935 23.9343Z" fill="#EC2227"/>
<path d="M44.5342 29.0181C44.1322 29.2072 43.683 29.3727 43.1864 29.491C42.6899 29.6092 42.1224 29.6565 41.4839 29.6565C40.8219 29.6565 40.2307 29.5619 39.6869 29.3491C39.143 29.1363 38.6701 28.8525 38.2918 28.4742C37.9135 28.0959 37.6061 27.6466 37.3933 27.1264C37.1805 26.6062 37.0623 26.0387 37.0623 25.4003C37.0623 24.7619 37.1805 24.1708 37.3933 23.6506C37.6061 23.1304 37.9371 22.6811 38.3155 22.3264C38.7174 21.9717 39.1667 21.688 39.7105 21.4752C40.2544 21.286 40.8219 21.1678 41.4367 21.1678C42.0751 21.1678 42.6662 21.2624 43.2101 21.4515C43.7539 21.6407 44.1795 21.8771 44.5106 22.1845L43.5174 23.2486C43.3046 23.0121 43.0209 22.823 42.6662 22.6574C42.2879 22.4919 41.8859 22.421 41.4603 22.421C41.0347 22.421 40.6564 22.4919 40.3017 22.6574C39.947 22.7993 39.6632 23.0121 39.4268 23.2959C39.1903 23.556 39.0012 23.8634 38.8593 24.2417C38.7174 24.5964 38.6701 24.9983 38.6701 25.4003C38.6701 25.8259 38.7411 26.2279 38.8593 26.5826C39.0012 26.9373 39.1903 27.2683 39.4268 27.5284C39.6632 27.7885 39.9706 28.0013 40.3253 28.1432C40.68 28.285 41.082 28.356 41.5312 28.356C42.146 28.356 42.6899 28.2614 43.1391 28.0722V26.0151H41.4367V24.8328H44.5342V29.0181Z" fill="#EC2227"/>
<path d="M52.7865 26.3698L51.5569 23.0831L50.2801 26.3698H52.7865ZM50.9658 21.357H52.219L55.6949 29.4437H54.0397L53.283 27.5994H49.7835L49.0505 29.4437H47.4426L50.9658 21.357Z" fill="#EC2227"/>
<path d="M58.6506 21.357H60.8969L63.0014 27.1028H63.025L65.1058 21.357H67.3758V29.4437H65.9334V22.9412H65.9098L63.4743 29.4437H62.4575L60.0457 22.9412H60.0221V29.4437H58.6506V21.357Z" fill="#EC2227"/>
<path d="M72.7434 21.357H71.301V29.4437H72.7434V21.357Z" fill="#EC2227"/>
<path d="M76.6682 21.357H78.5835L82.3431 27.4102H82.3668V21.357H83.8091V29.4437H81.9648L78.1342 23.2013H78.1106V29.4437H76.6682V21.357Z" fill="#EC2227"/>
<path d="M94.8045 29.0181C94.4025 29.2072 93.9532 29.3728 93.4567 29.491C92.9601 29.6092 92.3926 29.6565 91.7542 29.6565C91.0921 29.6565 90.501 29.5619 89.9572 29.3491C89.4133 29.1363 88.9404 28.8526 88.5621 28.4742C88.1837 28.0959 87.8764 27.6466 87.6636 27.1264C87.4507 26.6062 87.3325 26.0388 87.3325 25.4003C87.3325 24.7619 87.4507 24.1708 87.6636 23.6506C87.8764 23.1304 88.2074 22.6811 88.5857 22.3264C88.9877 21.9718 89.437 21.688 89.9808 21.4752C90.5246 21.286 91.0921 21.1678 91.7069 21.1678C92.3453 21.1678 92.9365 21.2624 93.4803 21.4516C94.0242 21.6407 94.4498 21.8772 94.7808 22.1846L93.7877 23.2486C93.5749 23.0121 93.2912 22.823 92.9365 22.6575C92.5581 22.4919 92.1562 22.421 91.7306 22.421C91.3049 22.421 90.9266 22.4919 90.5719 22.6575C90.2173 22.7993 89.9335 23.0121 89.6971 23.2959C89.4606 23.556 89.2714 23.8634 89.1296 24.2417C88.9877 24.5964 88.9404 24.9984 88.9404 25.4003C88.9404 25.8259 89.0113 26.2279 89.1296 26.5826C89.2714 26.9373 89.4606 27.2683 89.6971 27.5284C89.9335 27.7885 90.2409 28.0013 90.5956 28.1432C90.9503 28.2851 91.3522 28.356 91.8015 28.356C92.4163 28.356 92.9601 28.2614 93.4094 28.0723V26.0151H91.7069V24.8328H94.8045V29.0181Z" fill="#EC2227"/>
</svg>
